<?xml version="1.0" encoding="UTF-8" standalone="no"?>
<!-- Created with Inkscape (http://www.inkscape.org/) -->

<svg
   xmlns:dc="http://purl.org/dc/elements/1.1/"
   xmlns:cc="http://creativecommons.org/ns#"
   xmlns:rdf="http://www.w3.org/1999/02/22-rdf-syntax-ns#"
   xmlns:svg="http://www.w3.org/2000/svg"
   xmlns="http://www.w3.org/2000/svg"
   xmlns:sodipodi="http://sodipodi.sourceforge.net/DTD/sodipodi-0.dtd"
   xmlns:inkscape="http://www.inkscape.org/namespaces/inkscape"
   width="235.05933mm"
   height="37.593372mm"
   viewBox="0 0 235.05933 37.593372"
   version="1.1"
   id="svg83"
   inkscape:version="0.92.1 r15371"
   sodipodi:docname="combined_logo.svg">
  <defs
     id="defs77" />
  <sodipodi:namedview
     id="base"
     pagecolor="#ffffff"
     bordercolor="#666666"
     borderopacity="1.0"
     inkscape:pageopacity="0.0"
     inkscape:pageshadow="2"
     inkscape:zoom="0.98124877"
     inkscape:cx="371.31242"
     inkscape:cy="113.03604"
     inkscape:document-units="mm"
     inkscape:current-layer="layer1"
     showgrid="false"
     showguides="true"
     inkscape:guide-bbox="true"
     inkscape:snap-to-guides="false"
     inkscape:snap-grids="false"
     inkscape:snap-others="false"
     inkscape:snap-page="false"
     inkscape:snap-nodes="false"
     inkscape:window-width="1920"
     inkscape:window-height="1171"
     inkscape:window-x="0"
     inkscape:window-y="0"
     inkscape:window-maximized="1"
     fit-margin-top="0"
     fit-margin-left="0"
     fit-margin-right="0"
     fit-margin-bottom="0">
    <sodipodi:guide
       position="156.04565,74.81427"
       orientation="0,1"
       id="guide245"
       inkscape:locked="false" />
    <sodipodi:guide
       position="115.59973,44.47984"
       orientation="0,1"
       id="guide247"
       inkscape:locked="false" />
  </sodipodi:namedview>
  <metadata
     id="metadata80">
    <rdf:RDF>
      <cc:Work
         rdf:about="">
        <dc:format>image/svg+xml</dc:format>
        <dc:type
           rdf:resource="http://purl.org/dc/dcmitype/StillImage" />
        <dc:title></dc:title>
      </cc:Work>
    </rdf:RDF>
  </metadata>
  <g
     inkscape:label="Layer 1"
     inkscape:groupmode="layer"
     id="layer1"
     transform="translate(8.9573486,-136.71004)">
    <rect
       style="color:#000000;clip-rule:nonzero;display:inline;overflow:visible;visibility:visible;opacity:1;isolation:auto;mix-blend-mode:normal;color-interpolation:sRGB;color-interpolation-filters:linearRGB;solid-color:#000000;solid-opacity:1;vector-effect:none;fill:#ffffff;fill-opacity:0;fill-rule:nonzero;stroke:none;stroke-width:0.29167664;stroke-linecap:butt;stroke-linejoin:miter;stroke-miterlimit:4;stroke-dasharray:none;stroke-dashoffset:0;stroke-opacity:1;color-rendering:auto;image-rendering:auto;shape-rendering:auto;text-rendering:auto;enable-background:accumulate"
       id="rect1105"
       width="247.79861"
       height="29.929974"
       x="-38.259964"
       y="135.90002" />
    <g
       id="g1503"
       inkscape:export-xdpi="119.84"
       inkscape:export-ydpi="119.84">
      <g
         transform="matrix(1.0138623,0,0,1.230166,-23.605579,14.294528)"
         id="g1257">
        <rect
           style="color:#000000;clip-rule:nonzero;display:inline;overflow:visible;visibility:visible;opacity:1;isolation:auto;mix-blend-mode:normal;color-interpolation:sRGB;color-interpolation-filters:linearRGB;solid-color:#000000;solid-opacity:1;vector-effect:none;fill:#ffffff;fill-opacity:1;fill-rule:nonzero;stroke:#000000;stroke-width:0.2131649;stroke-linecap:butt;stroke-linejoin:miter;stroke-miterlimit:3.29999995;stroke-dasharray:none;stroke-dashoffset:0;stroke-opacity:1;color-rendering:auto;image-rendering:auto;shape-rendering:auto;text-rendering:auto;enable-background:accumulate"
           id="rect1254"
           width="231.63225"
           height="30.346428"
           x="14.554531"
           y="99.617958" />
      </g>
      <g
         transform="translate(35.862043,4.8535063)"
         id="g1415">
        <text
           xml:space="preserve"
           style="font-style:normal;font-weight:normal;font-size:6.74699163px;line-height:0%;font-family:sans-serif;letter-spacing:0px;word-spacing:0px;fill:#005572;fill-opacity:1;stroke:none;stroke-width:0.5622493px;stroke-linecap:butt;stroke-linejoin:miter;stroke-opacity:1"
           x="100.94637"
           y="165.36269"
           id="text4136-7-3-7-9-6"><tspan
             sodipodi:role="line"
             id="tspan4138-2-6-9-1-7"
             x="100.94637"
             y="165.36269"
             style="font-style:italic;font-variant:normal;font-weight:500;font-stretch:normal;font-size:42.52009964px;line-height:125%;font-family:'Exo 2';-inkscape-font-specification:'Exo 2, Medium Italic';text-align:start;writing-mode:lr-tb;text-anchor:start;fill:#005572;fill-opacity:1;stroke-width:0.5622493px">ERIC</tspan></text>
        <path
           inkscape:connector-curvature="0"
           id="path14"
           style="fill:#005572;fill-opacity:1;fill-rule:nonzero;stroke:none;stroke-width:0.33072916"
           d="m -22.219866,139.38714 c -1.553369,0 -2.683139,1.23561 -2.824096,3.03679 h 5.295668 c 0.07041,-1.97753 -0.918434,-3.03679 -2.471572,-3.03679 z m 7.590499,6.60169 h -10.450248 c 0.03539,2.32995 1.44694,3.67172 4.34211,3.67172 1.729747,0 3.530137,-0.35256 5.154084,-1.09438 l 0.494804,4.05907 c -1.976768,0.8126 -4.342243,1.20213 -6.496513,1.20213 -5.754059,0 -8.931772,-2.79066 -8.931772,-8.96769 0,-5.40213 3.001136,-9.39102 8.437596,-9.39102 5.295702,0 7.625656,3.56556 7.625656,8.15443 0,0.74153 -0.07041,1.51874 -0.175717,2.36534" />
        <path
           inkscape:connector-curvature="0"
           id="path16"
           style="fill:#005572;fill-opacity:1;fill-rule:nonzero;stroke:none;stroke-width:0.33072916"
           d="m -1.6033999,145.95367 c -3.1773151,0 -4.8005339,0.67052 -4.8005339,2.2943 0,0.91715 0.6356615,1.55277 1.7654323,1.55277 1.8001589,0 3.0351016,-1.65897 3.0351016,-3.35316 v -0.49417 z m 0.4947708,7.51919 c 0,-0.88238 0,-1.80016 0.14055993,-2.68254 h -0.035388 c -0.8469974,1.83518 -2.9292683,3.03742 -5.3650886,3.03742 -3.3539906,0 -5.1195222,-1.9774 -5.1195222,-4.80256 0,-4.44791 4.3065899,-6.35426 9.8846681,-6.42464 v -0.88239 c 0,-1.51877 -0.670388,-2.18916 -2.8591537,-2.18916 -0.7411641,0 -1.4125443,0.10583 -1.9767682,0.24742 -0.071438,0.56455 -0.1766094,1.2706 -0.3175,1.94174 h -3.4245022 v -5.36687 c 1.9061245,-0.56456 4.0591714,-0.91777 6.1781532,-0.91777 6.1065834,0 7.8015704,2.25957 7.8015704,6.28464 v 7.62487 c 0.8469974,0.14158 1.9413803,0.28254 2.8237657,0.35318 v 3.49515 c -2.294599,0.24675 -5.1894714,0.38771 -7.7307944,0.28191" />
        <path
           inkscape:connector-curvature="0"
           id="path18"
           style="fill:#005572;fill-opacity:1;fill-rule:nonzero;stroke:none;stroke-width:0.33072916"
           d="m 34.356121,139.74036 -4.129153,13.69748 h -5.931297 l -1.906985,-6.10764 c -0.387945,-1.27123 -0.705114,-2.57671 -1.023607,-4.20049 h -0.03506 c -0.352557,1.65893 -0.706107,2.96492 -1.164497,4.41252 l -1.730375,5.89561 H 12.610348 L 8.5860351,139.74036 c -0.5652162,-0.0712 -1.1297709,-0.14158 -1.659599,-0.28281 v -3.56489 h 8.6138409 v 3.56489 c -0.423664,0.10584 -0.847328,0.17701 -1.341437,0.212 l 0.883047,3.24776 c 0.353218,1.34177 0.740502,2.68317 1.023606,4.09549 h 0.07045 c 0.317831,-1.90636 0.776221,-3.42447 1.235935,-4.90746 l 1.941049,-6.21268 h 4.73075 L 25.99,142.10534 c 0.529828,1.72974 0.882386,3.17731 1.269669,4.90746 h 0.07144 c 0.248708,-1.37719 0.565216,-2.50633 0.883708,-3.74191 l 1.057011,-3.60134 c -0.457068,-0.0347 -0.916782,-0.1058 -1.339453,-0.212 v -3.56489 h 8.083351 v 3.56489 c -0.529497,0.14162 -1.093721,0.212 -1.659599,0.28281" />
        <path
           inkscape:connector-curvature="0"
           id="path20"
           style="fill:#005572;fill-opacity:1;fill-rule:nonzero;stroke:none;stroke-width:0.33072916"
           d="m 46.748543,145.95367 c -3.178638,0 -4.800864,0.67052 -4.800864,2.2943 0,0.91715 0.635,1.55277 1.764771,1.55277 1.799497,0 3.036093,-1.65897 3.036093,-3.35316 v -0.49417 z m 0.493448,7.51919 c 0,-0.88238 0,-1.80016 0.142214,-2.68254 h -0.03506 c -0.847989,1.83518 -2.931252,3.03742 -5.366742,3.03742 -3.354255,0 -5.119026,-1.9774 -5.119026,-4.80256 0,-4.44791 4.307417,-6.35426 9.885164,-6.42464 v -0.88239 c 0,-1.51877 -0.67138,-2.18916 -2.859153,-2.18916 -0.742157,0 -1.413868,0.10583 -1.976438,0.24742 -0.07111,0.56455 -0.177601,1.2706 -0.319815,1.94174 h -3.423708 v -5.36687 c 1.905992,-0.56456 4.060031,-0.91777 6.17769,-0.91777 6.107245,0 7.802893,2.25957 7.802893,6.28464 v 7.62487 c 0.845675,0.14158 1.94105,0.28254 2.823435,0.35318 v 3.49515 c -2.29493,0.24675 -5.189141,0.38771 -7.731456,0.28191" />
        <path
           inkscape:connector-curvature="0"
           id="path22"
           style="fill:#005572;fill-opacity:1;fill-rule:nonzero;stroke:none;stroke-width:0.33072916"
           d="m 64.298356,139.35202 c -1.729714,0 -2.788708,1.02397 -2.788708,2.54132 0,1.58919 0.989211,2.57734 2.823765,2.57734 1.65993,0 2.754313,-0.95276 2.754313,-2.54195 0,-1.55274 -0.989873,-2.57671 -2.78937,-2.57671 z m 1.688703,14.943 h -2.78937 c -0.211336,0 -0.530489,0 -0.706106,-0.0348 -0.741495,0.49481 -1.227998,1.6596 -1.26537,2.40116 -0.07871,1.57692 0.414734,3.43598 3.162763,3.43598 2.507588,0 3.856963,-2.66005 3.856963,-4.03724 0,-0.95214 -0.634338,-1.76474 -2.25888,-1.76474 z m -2.159,9.84256 c -4.765146,0 -7.840596,-3.11285 -7.840596,-6.5726 0,-1.65828 1.214437,-3.91514 2.556867,-4.58692 -1.023938,-0.49275 -1.694987,-1.48233 -1.694987,-2.71754 0,-1.41155 0.917773,-2.71829 2.118651,-3.21247 -1.588492,-0.84696 -2.613422,-2.54195 -2.613422,-4.83612 0,-3.67251 2.613422,-6.74327 8.121386,-6.74327 1.234612,0 2.258218,0.17621 3.282156,0.42363 H 73.6527 v 4.23628 h -2.012156 c 0.354541,0.35259 0.529828,0.91777 0.529828,1.58919 0,3.88272 -2.647487,6.35363 -7.765852,6.35363 -0.353549,0 -0.81194,-0.0348 -1.200878,-0.0704 -0.459052,0.17684 -0.635,0.56519 -0.635,0.88302 0,0.70614 0.494771,0.91711 2.506928,0.91711 h 2.39977 c 3.77792,0 5.987191,2.25686 5.987191,5.75171 0,3.84939 -3.562284,8.58476 -9.634803,8.58476" />
        <path
           inkscape:connector-curvature="0"
           id="path24"
           style="fill:#005572;fill-opacity:1;fill-rule:nonzero;stroke:none;stroke-width:0.33072916"
           d="m 79.64882,158.12685 c -1.56005,0 -2.828727,1.27007 -2.828727,2.83005 0,1.55946 1.268677,2.82941 2.828727,2.82941 1.559388,0 2.829057,-1.26995 2.829057,-2.82941 0,-1.55998 -1.269669,-2.83005 -2.829057,-2.83005 z m 1.974122,2.82979 c 0,1.08843 -0.885693,1.97404 -1.974122,1.97404 -1.08843,0 -1.973461,-0.88561 -1.973461,-1.97404 0,-1.08909 0.885031,-1.97416 1.973461,-1.97416 1.088429,0 1.974122,0.88507 1.974122,1.97416" />
        <path
           inkscape:connector-curvature="0"
           id="path26"
           style="fill:#005572;fill-opacity:1;fill-rule:nonzero;stroke:none;stroke-width:0.33072916"
           d="m 88.04901,158.12685 c -1.559388,0 -2.829057,1.27007 -2.829057,2.83005 0,1.55946 1.269669,2.82941 2.829057,2.82941 1.561372,0 2.831703,-1.26995 2.831703,-2.82941 0,-1.55998 -1.270331,-2.83005 -2.831703,-2.83005 z m 1.976437,2.82979 c 0,1.08843 -0.886685,1.97404 -1.976437,1.97404 -1.08843,0 -1.9728,-0.88561 -1.9728,-1.97404 0,-1.08909 0.88437,-1.97416 1.9728,-1.97416 1.089752,0 1.976437,0.88507 1.976437,1.97416" />
        <path
           inkscape:connector-curvature="0"
           id="path28"
           style="fill:#005572;fill-opacity:1;fill-rule:nonzero;stroke:none;stroke-width:0.33072916"
           d="m 96.242164,158.12685 c -1.558727,0 -2.827404,1.27007 -2.827404,2.83005 0,1.55946 1.268677,2.82941 2.827404,2.82941 1.560049,0 2.830049,-1.26995 2.830049,-2.82941 0,-1.55998 -1.27,-2.83005 -2.830049,-2.83005 z m 1.974122,2.82979 c 0,1.08843 -0.885693,1.97404 -1.974122,1.97404 -1.087769,0 -1.972138,-0.88561 -1.972138,-1.97404 0,-1.08909 0.884369,-1.97416 1.972138,-1.97416 1.088429,0 1.974122,0.88507 1.974122,1.97416" />
        <path
           inkscape:connector-curvature="0"
           id="path30"
           style="fill:#005572;fill-opacity:1;fill-rule:nonzero;stroke:none;stroke-width:0.33072916"
           d="m -38.668979,161.0919 c -0.397262,0 -1.891486,0 -1.891486,1.06661 0,0.33395 0.209421,0.9095 1.086498,0.9095 0.501389,0 0.877726,-0.20012 1.118794,-0.56586 0.218966,-0.35591 0.229185,-0.64725 0.250121,-1.37846 -0.176997,-0.0212 -0.32389,-0.0318 -0.563927,-0.0318 z m 0.678657,2.58098 c -0.07312,-0.26226 -0.09366,-0.51224 -0.09366,-0.78483 -0.47027,0.86816 -1.180693,0.95149 -1.619812,0.95149 -1.201609,0 -1.849501,-0.6789 -1.849501,-1.54706 0,-0.41678 0.145857,-1.08585 0.919067,-1.53633 0.564565,-0.31317 1.400946,-0.34432 1.818362,-0.34432 0.251407,0 0.408117,0.0103 0.71042,0.0311 0,-0.64724 0,-0.93031 -0.187196,-1.1595 -0.198438,-0.26095 -0.627093,-0.34571 -0.909505,-0.34571 -0.992188,0 -1.045154,0.68031 -1.055361,0.8887 h -0.982628 c 0.03114,-0.27117 0.06318,-0.63755 0.365481,-0.99219 0.397262,-0.43848 1.139336,-0.56455 1.693049,-0.56455 0.763002,0 1.578604,0.2412 1.860352,0.77334 0.167316,0.31313 0.177502,0.56379 0.177502,0.80357 l -0.04134,2.50964 c 0,0.0833 0.01035,0.78343 0.08348,1.31622 h -0.888702" />
        <path
           inkscape:connector-curvature="0"
           id="path32"
           style="fill:#005572;fill-opacity:1;fill-rule:nonzero;stroke:none;stroke-width:0.33072916"
           d="m -32.440687,159.07446 c -1.410891,0 -1.431429,1.48428 -1.431429,1.89276 0,0.37468 0.05219,1.13728 0.428261,1.67175 0.229857,0.33408 0.637712,0.51172 1.128481,0.51172 1.212487,0 1.452894,-0.95084 1.452894,-1.99601 0,-0.42889 0,-2.07996 -1.577942,-2.07996 z m 2.560439,-0.6479 c -0.01019,0.20928 -0.02054,0.6683 -0.02054,0.85718 v 6.40659 h -0.992816 v -2.6032 c -0.08397,0.12467 -0.188516,0.29404 -0.428923,0.45088 -0.438613,0.30153 -0.940627,0.33395 -1.18067,0.33395 -1.274597,0 -2.393156,-0.89929 -2.393156,-2.84362 0,-1.93348 1.097359,-2.68589 2.205302,-2.68589 1.065973,0 1.556742,0.58549 1.786599,0.95085 l 0.03178,-0.86674 h 0.992816" />
        <path
           inkscape:connector-curvature="0"
           id="path34"
           style="fill:#005572;fill-opacity:1;fill-rule:nonzero;stroke:none;stroke-width:0.33072916"
           d="m -26.316641,158.42656 v 3.37512 c 0,0.51353 0.115127,1.16078 1.117501,1.16078 0.491596,0 0.95164,-0.16666 1.233388,-0.58537 0.220299,-0.31314 0.220299,-0.72166 0.220299,-0.98392 v -2.96701 h 1.012957 v 4.2641 c 0,0.10515 0.0212,0.69065 0.03178,0.98262 h -1.02397 l -0.02054,-0.8993 c -0.188482,0.36613 -0.544016,0.95149 -1.673159,0.95149 -1.295135,0 -1.901692,-0.74207 -1.901692,-1.77687 v -3.52164 h 1.003829" />
        <path
           inkscape:connector-curvature="0"
           id="path36"
           style="fill:#005572;fill-opacity:1;fill-rule:nonzero;stroke:none;stroke-width:0.33072916"
           d="m -17.423631,161.0919 c -0.396478,0 -1.891474,0 -1.891474,1.06661 0,0.33395 0.209418,0.9095 1.086479,0.9095 0.502047,0 0.877722,-0.20012 1.118162,-0.56586 0.219604,-0.35591 0.229956,-0.64725 0.250759,-1.37846 -0.177635,-0.0212 -0.323751,-0.0318 -0.563926,-0.0318 z m 0.679681,2.58098 c -0.07378,-0.26226 -0.09432,-0.51224 -0.09432,-0.78483 -0.470264,0.86816 -1.18067,0.95149 -1.619283,0.95149 -1.202101,0 -1.85,-0.6789 -1.85,-1.54706 0,-0.41678 0.145852,-1.08585 0.919064,-1.53633 0.564554,-0.31317 1.400307,-0.34432 1.818349,-0.34432 0.250626,0 0.408119,0.0103 0.710439,0.0311 0,-0.64724 0,-0.93031 -0.187854,-1.1595 -0.198438,-0.26095 -0.627096,-0.34571 -0.908844,-0.34571 -0.992849,0 -1.04517,0.68031 -1.05539,0.8887 h -0.982629 c 0.03178,-0.27117 0.06254,-0.63755 0.365489,-0.99219 0.397933,-0.43848 1.139328,-0.56455 1.693068,-0.56455 0.763654,0 1.57781,0.2412 1.860352,0.77334 0.166654,0.31313 0.177502,0.56379 0.177502,0.80357 l -0.042,2.50964 c 0,0.0833 0.01035,0.78343 0.08334,1.31622 h -0.887677" />
        <path
           inkscape:connector-curvature="0"
           id="path38"
           style="fill:#005572;fill-opacity:1;fill-rule:nonzero;stroke:none;stroke-width:0.33072916"
           d="m -14.048507,158.40602 h 0.930308 v -1.09736 l 0.971649,-0.31313 v 1.41089 h 1.171112 v 0.72089 h -1.171112 v 3.14593 c 0,0.26095 0,0.7002 0.700848,0.7002 0.199066,0 0.386292,-0.0311 0.470264,-0.0523 v 0.763 c -0.177502,0.0318 -0.460705,0.0625 -0.815214,0.0625 -0.899286,0 -1.327547,-0.26161 -1.327547,-1.1175 v -3.50184 h -0.930043 v -0.72089" />
        <path
           inkscape:connector-curvature="0"
           id="path40"
           style="fill:#005572;fill-opacity:1;fill-rule:nonzero;stroke:none;stroke-width:0.33072916"
           d="m -8.8647242,158.42656 h 0.9821003 v 5.24632 h -0.9821003 z m -0.104775,-2.27777 h 1.1808024 v 1.07616 h -1.1808024 v -1.07616" />
        <path
           inkscape:connector-curvature="0"
           id="path42"
           style="fill:#005572;fill-opacity:1;fill-rule:nonzero;stroke:none;stroke-width:0.33072916"
           d="m -2.0928791,160.10928 c -0.020836,-0.24044 -0.094258,-1.0967 -1.0457656,-1.0967 -1.357974,0 -1.357974,1.57691 -1.357974,1.97481 0,1.07679 0.2609453,2.08062 1.306711,2.08062 0.8350911,0 1.1178646,-0.62774 1.1383698,-1.14012 h 0.9925182 c -0.061846,1.02462 -0.8245078,1.88064 -2.1209662,1.88064 -0.3552031,0 -1.169789,-0.0725 -1.7240911,-0.67838 -0.3132006,-0.36613 -0.6270625,-0.91972 -0.6270625,-2.0062 0,-2.18516 1.3374687,-2.8324 2.3825729,-2.8324 0.3446198,0 1.1287787,0.0731 1.6093281,0.64724 0.3869532,0.45012 0.4183724,0.87852 0.4385469,1.17115 h -0.9921875" />
        <path
           inkscape:connector-curvature="0"
           id="path44"
           style="fill:#005572;fill-opacity:1;fill-rule:nonzero;stroke:none;stroke-width:0.33072916"
           d="m 5.0340038,159.49253 c 0,-0.3553 -0.021167,-0.72168 -0.051925,-1.06597 h 0.992849 l 0.020174,1.01339 c 0.1885156,-0.73059 0.8159088,-0.97116 1.2544557,-1.03433 0.2926953,-0.042 0.5122995,-0.0316 0.6796485,-0.021 v 0.96169 c -0.052586,-0.0208 -0.1157553,-0.0311 -0.1888464,-0.0413 -0.07276,-0.0116 -0.1663568,-0.0116 -0.2814505,-0.0116 -1.160198,0 -1.4313959,0.69 -1.4313959,1.58919 v 2.79039 H 5.0340038 v -4.18075" />
        <path
           inkscape:connector-curvature="0"
           id="path46"
           style="fill:#005572;fill-opacity:1;fill-rule:nonzero;stroke:none;stroke-width:0.33072916"
           d="m 13.299918,160.5382 c 0.01058,-0.50205 -0.08301,-1.54643 -1.295466,-1.54643 -0.637646,0 -1.411222,0.3863 -1.431396,1.54643 z m -2.769195,0.68858 c -0.02117,1.08843 0.428625,1.89278 1.504817,1.89278 0.637315,0 1.149284,-0.33396 1.23362,-1.08637 h 0.982266 c -0.03142,0.25956 -0.07342,0.68846 -0.449461,1.09657 -0.230518,0.26162 -0.752409,0.69957 -1.807766,0.69957 -1.651661,0 -2.4354894,-1.02332 -2.4354894,-2.68524 0,-1.03481 0.2083594,-1.89276 1.0345204,-2.46562 0.501717,-0.35642 1.128779,-0.38754 1.431727,-0.38754 2.351484,0 2.299229,2.07995 2.278393,2.93585 h -3.772627" />
        <path
           inkscape:connector-curvature="0"
           id="path48"
           style="fill:#005572;fill-opacity:1;fill-rule:nonzero;stroke:none;stroke-width:0.33072916"
           d="m 17.197892,162.11614 c -0.01025,0.39661 0.199099,0.95148 1.149945,0.95148 0.407459,0 0.710407,-0.0744 0.918766,-0.33602 0.105172,-0.13488 0.16768,-0.31316 0.16768,-0.49081 0,-0.5116 -0.366118,-0.60589 -1.149284,-0.7834 -1.09736,-0.25076 -2.016787,-0.47039 -2.016787,-1.56775 0,-0.9617 0.835753,-1.58853 2.047545,-1.58853 0.659143,0 1.578239,0.1872 1.892432,0.81532 0.135599,0.292 0.135599,0.54338 0.135599,0.76302 h -1.003102 c 0.03109,-0.79441 -0.658482,-0.85669 -1.013685,-0.85669 -0.146513,0 -1.06594,0 -1.06594,0.75241 0,0.47996 0.470297,0.59571 0.741826,0.66821 1.452562,0.34492 1.765763,0.42889 2.079294,0.72165 0.293026,0.27183 0.397537,0.63692 0.397537,0.97099 0,0.58563 -0.324115,1.08844 -0.711068,1.32822 -0.460044,0.28241 -1.013354,0.35515 -1.556742,0.35515 -1.06561,0 -2.05879,-0.43783 -2.048206,-1.70262 h 1.03419" />
        <path
           inkscape:connector-curvature="0"
           id="path50"
           style="fill:#005572;fill-opacity:1;fill-rule:nonzero;stroke:none;stroke-width:0.33072916"
           d="m 26.112035,160.5382 c 0.0096,-0.50205 -0.08268,-1.54643 -1.295135,-1.54643 -0.638307,0 -1.411222,0.3863 -1.432057,1.54643 z m -2.769195,0.68858 c -0.02117,1.08843 0.428294,1.89278 1.504818,1.89278 0.637315,0 1.149284,-0.33396 1.233289,-1.08637 h 0.981935 c -0.03175,0.25956 -0.07309,0.68846 -0.448138,1.09657 -0.230519,0.26162 -0.75274,0.69957 -1.808758,0.69957 -1.651,0 -2.435159,-1.02332 -2.435159,-2.68524 0,-1.03481 0.209021,-1.89276 1.034851,-2.46562 0.501717,-0.35642 1.128448,-0.38754 1.432058,-0.38754 2.350492,0 2.298898,2.07995 2.278062,2.93585 H 23.34284" />
        <path
           inkscape:connector-curvature="0"
           id="path52"
           style="fill:#005572;fill-opacity:1;fill-rule:nonzero;stroke:none;stroke-width:0.33072916"
           d="m 31.96528,161.0919 c -0.398198,0 -1.892763,0 -1.892763,1.06661 0,0.33395 0.209352,0.9095 1.08843,0.9095 0.501385,0 0.87544,-0.20012 1.117534,-0.56586 0.21795,-0.35591 0.229856,-0.64725 0.250362,-1.37846 -0.177602,-0.0212 -0.324776,-0.0318 -0.563563,-0.0318 z m 0.677995,2.58098 c -0.07243,-0.26226 -0.09294,-0.51224 -0.09294,-0.78483 -0.470958,0.86816 -1.181365,0.95149 -1.619911,0.95149 -1.202201,0 -1.849438,-0.6789 -1.849438,-1.54706 0,-0.41678 0.145852,-1.08585 0.919096,-1.53633 0.565217,-0.31317 1.399646,-0.34432 1.818349,-0.34432 0.252016,0 0.406467,0.0103 0.710407,0.0311 0,-0.64724 0,-0.93031 -0.188516,-1.1595 -0.198107,-0.26095 -0.627063,-0.34571 -0.909505,-0.34571 -0.99318,0 -1.045104,0.68031 -1.054034,0.8887 h -0.982596 c 0.03109,-0.27117 0.06251,-0.63755 0.364794,-0.99219 0.398198,-0.43848 1.140354,-0.56455 1.693995,-0.56455 0.761338,0 1.577909,0.2412 1.860351,0.77334 0.167018,0.31313 0.176279,0.56379 0.176279,0.80357 l -0.04233,2.50964 c 0,0.0833 0.01257,0.78343 0.08434,1.31622 h -0.888338" />
        <path
           inkscape:connector-curvature="0"
           id="path54"
           style="fill:#005572;fill-opacity:1;fill-rule:nonzero;stroke:none;stroke-width:0.33072916"
           d="m 36.197291,159.49253 c 0,-0.3553 -0.02249,-0.72168 -0.05226,-1.06597 h 0.992849 l 0.02084,1.01339 c 0.187193,-0.73059 0.814917,-0.97116 1.253133,-1.03433 0.292365,-0.042 0.513292,-0.0316 0.679649,-0.021 v 0.96169 c -0.05192,-0.0208 -0.114433,-0.0311 -0.188847,-0.0413 -0.07276,-0.0116 -0.167349,-0.0116 -0.281781,-0.0116 -1.159206,0 -1.432057,0.69 -1.432057,1.58919 v 2.79039 h -0.991526 v -4.18075" />
        <path
           inkscape:connector-curvature="0"
           id="path56"
           style="fill:#005572;fill-opacity:1;fill-rule:nonzero;stroke:none;stroke-width:0.33072916"
           d="m 44.086504,160.10928 c -0.02084,-0.24044 -0.0936,-1.0967 -1.043781,-1.0967 -1.360289,0 -1.360289,1.57691 -1.360289,1.97481 0,1.07679 0.261607,2.08062 1.30638,2.08062 0.836083,0 1.119188,-0.62774 1.140354,-1.14012 h 0.991526 c -0.06251,1.02462 -0.824838,1.88064 -2.120635,1.88064 -0.355534,0 -1.169789,-0.0725 -1.725083,-0.67838 -0.31287,-0.36613 -0.626732,-0.91972 -0.626732,-2.0062 0,-2.18516 1.338791,-2.8324 2.382573,-2.8324 0.345612,0 1.129109,0.0731 1.609328,0.64724 0.387614,0.45012 0.418041,0.87852 0.439208,1.17115 h -0.99318" />
        <path
           inkscape:connector-curvature="0"
           id="path58"
           style="fill:#005572;fill-opacity:1;fill-rule:nonzero;stroke:none;stroke-width:0.33072916"
           d="M 46.687689,156.13857 H 47.6812 v 3.0612 c 0.323453,-0.55357 0.972013,-0.8675 1.702924,-0.8675 0.554633,0 1.348714,0.19906 1.651662,0.83638 0.104841,0.20942 0.178263,0.46004 0.178263,1.22277 v 3.28146 h -1.004094 v -3.10396 c 0,-0.47023 0,-1.48424 -1.12911,-1.48424 -0.731903,0 -1.096698,0.4488 -1.232296,0.70084 -0.167349,0.29263 -0.167349,0.7834 -0.167349,1.10729 v 2.78007 h -0.993511 v -7.53431" />
      </g>
    </g>
  </g>
</svg>
